<svg width="264" height="225" viewBox="0 0 264 225" fill="none" xmlns="http://www.w3.org/2000/svg">
<path d="M132.9 104.1C132.9 110.5 131.7 117 129.3 123.6C126.9 130.2 123.233 136.3 118.3 141.9C113.367 147.433 107.133 151.9 99.6 155.3C92.0667 158.7 83.2 160.4 73 160.4C59.3333 160.4 47.6667 157.167 38 150.7C28.3333 144.167 20.9333 135.2 15.8 123.8C10.7333 112.333 8.2 99.1333 8.2 84.2C8.2 69.3333 10.7333 56.2 15.8 44.8C20.9333 33.3333 28.3333 24.4 38 18C47.6667 11.5333 59.3333 8.29999 73 8.29999C84.3333 8.29999 94 10.3667 102 14.5C110.067 18.6333 116.5 24 121.3 30.6C126.167 37.2 129.5 44.1667 131.3 51.5C132.367 55.9667 132.9 60.2667 132.9 64.4H101.8C101.8 62.4 101.633 60.4667 101.3 58.6C100.3 51.3333 97.3667 45.3 92.5 40.5C87.6333 35.6333 81.1333 33.2 73 33.2C63.4 33.2 55.4667 37.3667 49.2 45.7C42.9333 53.9667 39.8 66.8 39.8 84.2C39.8 101.667 42.9333 114.6 49.2 123C55.4667 131.333 63.4 135.5 73 135.5C79.1333 135.5 84.3333 134.033 88.6 131.1C92.8667 128.167 96.1333 124.333 98.4 119.6C100.667 114.8 101.8 109.633 101.8 104.1H132.9Z" fill="#7B1A28"/>
<path d="M117.2 224.4C105.133 224.4 95.4667 222.3 88.2 218.1C81 213.833 75.7667 207.933 72.5 200.4C69.3 192.8 67.7 184 67.7 174V167.1H98.5V171.2C98.5 176.067 99 180.667 100 185C101.067 189.333 102.933 192.833 105.6 195.5C108.333 198.167 112.2 199.5 117.2 199.5C122.2 199.5 126 198.167 128.6 195.5C131.267 192.767 133.067 189.1 134 184.5C134.933 179.833 135.4 174.7 135.4 169.1V74.5H166.4V173.5C166.4 182.767 164.967 191.267 162.1 199C159.233 206.667 154.233 212.833 147.1 217.5C139.967 222.1 130 224.4 117.2 224.4Z" fill="#D4AF37"/>
<path d="M170.2 158V10.5H201.3V132.7H256.2V158H170.2Z" fill="#347484"/>
</svg>
