<svg width="500" height="500" viewBox="0 0 500 500" fill="none" xmlns="http://www.w3.org/2000/svg">
<rect x="8.5" y="8.49969" width="483" height="483" rx="91.5" fill="black" stroke="black" stroke-width="17"/>
<circle cx="250" cy="249" r="8" fill="white"/>
<path fill-rule="evenodd" clip-rule="evenodd" d="M400 16.9997H100C80.4944 16.9997 62.5604 23.7281 48.3922 34.9907L251.092 237.691L452.814 35.9683C438.464 24.1186 420.064 16.9997 400 16.9997ZM465.166 48.5899L257.901 255.855C257.175 256.581 256.354 257.154 255.478 257.574C252.115 259.562 247.71 259.111 244.82 256.221L35.8853 47.2863C24.0856 61.6216 17 79.9832 17 99.9997V400C17 445.839 54.1604 483 100 483H400C445.84 483 483 445.839 483 400V99.9997C483 80.5849 476.334 62.727 465.166 48.5899ZM100 -0.000305176C44.7715 -0.000305176 0 44.7712 0 99.9997V400C0 455.228 44.7715 500 100 500H400C455.228 500 500 455.228 500 400V99.9997C500 44.7712 455.228 -0.000305176 400 -0.000305176H100Z" fill="white"/>
</svg>
