<svg width="500" height="500" viewBox="0 0 500 500" fill="none" xmlns="http://www.w3.org/2000/svg">
<rect x="8.5" y="8.5" width="483" height="483" rx="91.5" fill="black" stroke="black" stroke-width="17"/>
<path d="M255.639 258.5C254.5 259.5 253.5 261.564 251.5 262.5C249 261.5 247.5 258.829 247.5 258C247.5 257.172 251.685 258.5 252.513 258.5C253.341 258.5 255.639 257.672 255.639 258.5Z" fill="white"/>
<path fill-rule="evenodd" clip-rule="evenodd" d="M24.8078 36.3963C24.0267 35.6152 24.0267 34.3489 24.8078 33.5678L34.6806 23.695C35.4616 22.914 36.7279 22.914 37.509 23.695L250.528 236.714C250.919 237.105 251.552 237.105 251.942 236.714L464.325 24.3318C464.715 23.9413 465.349 23.9413 465.739 24.3318L477.038 35.6307C477.428 36.0212 477.428 36.6544 477.038 37.0449L252.205 261.878C252.022 262.061 251.727 262.061 251.545 261.878C251.435 261.768 251.277 261.724 251.122 261.735C250.564 261.775 249.992 261.581 249.566 261.154L24.8078 36.3963Z" fill="white"/>
</svg>
