<svg width="78" height="78" viewBox="0 0 78 78" fill="none" xmlns="http://www.w3.org/2000/svg">
<g filter="url(#filter0_i_71_49)">
<path fill-rule="evenodd" clip-rule="evenodd" d="M61.8699 3.86765H15.8263C9.46906 3.86765 4.31547 9.06247 4.31547 15.4706V61.8825C4.31547 68.2906 9.46906 73.4854 15.8263 73.4854H61.8699C68.2271 73.4854 73.3807 68.2906 73.3807 61.8825V15.4706C73.3807 9.06247 68.2271 3.86765 61.8699 3.86765ZM15.8263 0C7.34997 0 0.478516 6.92643 0.478516 15.4706V61.8825C0.478516 70.4266 7.34997 77.3531 15.8263 77.3531H61.8699C70.3462 77.3531 77.2177 70.4266 77.2177 61.8825V15.4706C77.2177 6.92643 70.3462 0 61.8699 0H15.8263Z" fill="black"/>
</g>
<path fill-rule="evenodd" clip-rule="evenodd" d="M7.80867 3.43311L40.3461 44.4302L37.3499 46.8464L4.8125 5.84921L7.80867 3.43311Z" fill="black"/>
<path fill-rule="evenodd" clip-rule="evenodd" d="M68.6534 5.14233L38.2646 43.8188L41.2725 46.2202L71.6612 7.54361L68.6534 5.14233Z" fill="black"/>
<path d="M41.6107 44.8647C41.6107 46.3173 40.4769 47.4948 39.0783 47.4948C37.6796 47.4948 36.5459 46.3173 36.5459 44.8647C36.5459 43.4122 37.6796 42.2347 39.0783 42.2347C40.4769 42.2347 41.6107 43.4122 41.6107 44.8647Z" fill="black"/>
<path fill-rule="evenodd" clip-rule="evenodd" d="M39.0783 43.6271C38.2506 43.6271 37.7737 44.2908 37.7737 44.8647C37.7737 45.4387 38.2506 46.1024 39.0783 46.1024C39.906 46.1024 40.3829 45.4387 40.3829 44.8647C40.3829 44.2908 39.906 43.6271 39.0783 43.6271ZM39.0783 47.4948C40.4769 47.4948 41.6107 46.3173 41.6107 44.8647C41.6107 43.4122 40.4769 42.2347 39.0783 42.2347C37.6796 42.2347 36.5459 43.4122 36.5459 44.8647C36.5459 46.3173 37.6796 47.4948 39.0783 47.4948Z" fill="black"/>
<defs>
<filter id="filter0_i_71_49" x="0.478516" y="0" width="76.7393" height="81.353" filterUnits="userSpaceOnUse" color-interpolation-filters="sRGB">
<feFlood flood-opacity="0" result="BackgroundImageFix"/>
<feBlend mode="normal" in="SourceGraphic" in2="BackgroundImageFix" result="shape"/>
<feColorMatrix in="SourceAlpha" type="matrix" values="0 0 0 0 0 0 0 0 0 0 0 0 0 0 0 0 0 0 127 0" result="hardAlpha"/>
<feOffset dy="4"/>
<feGaussianBlur stdDeviation="2"/>
<feComposite in2="hardAlpha" operator="arithmetic" k2="-1" k3="1"/>
<feColorMatrix type="matrix" values="0 0 0 0 0 0 0 0 0 0 0 0 0 0 0 0 0 0 0.25 0"/>
<feBlend mode="normal" in2="shape" result="effect1_innerShadow_71_49"/>
</filter>
</defs>
</svg>
