<svg width="500" height="500" viewBox="0 0 500 500" fill="none" xmlns="http://www.w3.org/2000/svg">
<rect x="8.5" y="8.5" width="483" height="483" rx="91.5" fill="white" stroke="white" stroke-width="17"/>
<path d="M255.639 258.5C254.5 259.5 253.5 261.564 251.5 262.5C249 261.5 247.5 258.828 247.5 258C247.5 257.172 251.685 258.5 252.513 258.5C253.341 258.5 255.639 257.672 255.639 258.5Z" fill="white"/>
<path fill-rule="evenodd" clip-rule="evenodd" d="M24.8077 36.3964C24.0267 35.6153 24.0267 34.349 24.8077 33.568L34.6805 23.6952C35.4616 22.9141 36.7279 22.9141 37.5089 23.6952L250.528 236.714C250.919 237.105 251.552 237.105 251.942 236.714L464.325 24.3319C464.715 23.9414 465.349 23.9414 465.739 24.3319L477.038 35.6308C477.428 36.0213 477.428 36.6545 477.038 37.045L252.205 261.878C252.022 262.061 251.727 262.061 251.545 261.878C251.434 261.768 251.277 261.724 251.122 261.735C250.564 261.775 249.992 261.581 249.566 261.154L24.8077 36.3964Z" fill="black"/>
</svg>
