<svg width="77" height="78" viewBox="0 0 77 78" fill="none" xmlns="http://www.w3.org/2000/svg">
<path d="M38.5913 3.84223C57.7154 3.84223 73.2292 19.8327 73.2292 39.5443C73.2292 55.3087 63.3069 68.6919 49.5473 73.4382C49.3359 73.4786 49.1401 73.4947 48.9599 73.4947C47.6599 73.4947 47.2057 72.5342 47.2057 71.7189C47.2057 70.5565 47.2057 66.6982 47.2057 61.9115C47.2057 58.5617 46.125 56.4226 44.8563 55.3087C52.5702 54.4289 60.6913 51.4019 60.6913 37.6877C60.6913 33.7809 59.3365 30.5764 57.128 28.1145C57.4883 27.1862 58.663 23.5619 56.7678 18.63C56.5015 18.5412 56.2039 18.5089 55.8828 18.5089C52.719 18.5089 47.2449 22.3027 47.2449 22.3027C44.4961 21.5116 41.5202 21.0919 38.5834 21.0919C35.6467 21.0919 32.6708 21.5116 29.922 22.3027C29.922 22.3027 24.4557 18.5089 21.2527 18.5089C20.9316 18.5089 20.6262 18.5492 20.3599 18.63C18.5118 23.5619 19.6865 27.1862 20.0467 28.1145C17.8383 30.5764 16.4834 33.789 16.4834 37.6877C16.4834 51.3535 24.5575 54.4289 32.2714 55.3087C31.2768 56.237 30.3762 57.7706 30.063 60.0954C29.1858 60.507 27.7136 61.0398 26.0768 61.0398C24.0093 61.0398 21.6913 60.1761 19.9997 57.1168C18.1045 53.7266 14.6744 53.4441 14.6744 53.4441C14.6431 53.4441 14.6039 53.4441 14.5726 53.4441C11.3539 53.4441 14.4473 55.6316 14.4473 55.6316C16.7027 56.6971 18.2846 60.838 18.2846 60.838C19.4985 64.6479 23.4455 65.4147 26.4136 65.4147C28.4105 65.4147 29.969 65.0676 29.969 65.0676C29.969 68.0462 30.016 70.8794 30.016 71.7189C30.016 72.5342 29.5304 73.4947 28.2148 73.4947C28.0346 73.4947 27.8389 73.4786 27.6274 73.4382C13.8756 68.7 3.95332 55.3087 3.95332 39.5523C3.95332 19.8407 19.4672 3.84223 38.5913 3.84223ZM38.5913 0C33.4148 0 28.3871 1.04935 23.6569 3.10768C19.0913 5.10145 14.9877 7.95083 11.4636 11.5832C7.93946 15.2155 5.175 19.4452 3.24067 24.1511C1.23585 29.0347 0.217773 34.2168 0.217773 39.5523C0.217773 43.8224 0.875605 48.0278 2.1756 52.0477C3.42862 55.9383 5.26115 59.5868 7.61838 62.9044C9.94428 66.1816 12.7401 69.0632 15.9118 71.4687C19.1304 73.9064 22.6702 75.7952 26.4449 77.0948L26.7033 77.1836L26.9696 77.232C27.3925 77.3127 27.8154 77.3531 28.2226 77.3531C29.9063 77.3531 31.4099 76.6751 32.4437 75.432C33.2895 74.423 33.7515 73.1073 33.7515 71.727C33.7515 71.4202 33.7437 70.8956 33.7358 70.1772C33.7202 68.8372 33.7045 67.0049 33.7045 65.0838V61.0317L33.7593 60.6362C33.963 59.1267 34.4877 58.4325 34.7852 58.1581L38.4581 54.7195L42.4365 58.2307C42.6087 58.3841 43.478 59.2882 43.478 61.9115V71.7189C43.478 74.9234 45.8352 77.345 48.9678 77.345C49.375 77.345 49.7901 77.3047 50.213 77.2239L50.4792 77.1755L50.7377 77.0867C54.5045 75.7871 58.0521 73.8902 61.263 71.4606C64.4425 69.0552 67.2304 66.1735 69.5563 62.8963C71.9136 59.5787 73.7461 55.9222 74.9991 52.0396C76.2991 48.0198 76.9569 43.8143 76.9569 39.5443C76.9569 34.2087 75.9389 29.0266 73.9419 24.1511C72.0075 19.4452 69.2431 15.2155 65.719 11.5832C62.1949 7.95083 58.0913 5.10145 53.5256 3.10768C48.7955 1.04128 43.7678 0 38.5913 0ZM38.5678 52.1607L32.6865 51.4907C28.6142 51.0225 25.8184 50.0297 23.8919 48.3507C21.425 46.2117 20.219 42.7246 20.219 37.6877C20.219 34.9675 21.0883 32.6267 22.7877 30.7217L24.3852 28.9378L23.5081 26.6857C23.375 26.3467 22.913 24.9664 23.1401 22.8919C23.6569 23.1018 24.2756 23.3924 25.0039 23.7798C26.578 24.6193 27.831 25.483 27.8467 25.4911L29.272 26.4839L30.9244 26.0077C33.3599 25.3054 36.0069 24.9422 38.5834 24.9422C41.1599 24.9422 43.8069 25.3135 46.2425 26.0077L47.9105 26.4839L49.3359 25.4911C49.3437 25.483 50.6045 24.6193 52.1708 23.7798C52.9069 23.3843 53.5178 23.1018 54.019 22.8919C54.2618 24.9664 53.7997 26.3467 53.6666 26.6857L52.7895 28.9378L54.3871 30.7217C56.0943 32.6267 56.9557 34.9675 56.9557 37.6877C56.9557 42.7327 55.7497 46.2197 53.2672 48.3588C51.3328 50.0216 48.5292 51.0145 44.4413 51.4826L38.5678 52.1607Z" fill="black"/>
</svg>
