<svg width="500" height="500" viewBox="0 0 500 500" fill="none" xmlns="http://www.w3.org/2000/svg">
<path d="M491.5 247.036C491.5 378.942 383.212 491.5 250 491.5C116.788 491.5 8.5 378.942 8.5 247.036C8.5 115.391 116.527 8.5 250 8.5C383.473 8.5 491.5 115.391 491.5 247.036Z" fill="black" stroke="black" stroke-width="17"/>
<path d="M464.3 158.923L463.839 159.118L464.3 158.922C452.556 131.237 435.666 106.277 414.304 84.9153C392.942 63.5531 368.112 46.7671 340.372 35.1042C311.739 23.0056 281.316 16.902 250 16.902C218.683 16.902 188.26 23.1149 159.627 35.2132C132.001 46.8757 107.059 63.661 85.6965 85.0232C64.2221 106.386 47.4444 131.238 35.7003 159.031C23.5087 187.807 17.3571 218.326 17.3571 249.824C17.3571 299.743 32.9041 347.375 62.3203 387.377C73.6163 402.744 86.702 416.695 101.354 428.903L102.032 428.17C93.9396 419.851 89.1794 410.89 86.9702 404.217L86.9655 404.202L86.96 404.189C79.3291 385.051 69.7689 378.442 67.894 377.3L67.8565 377.277L67.8155 377.261L66.2583 376.654L65.7818 376.097L65.7394 376.048L65.6858 376.011L65.6335 375.975C62.9358 374.112 57.6546 370.467 53.6739 365.322C49.676 360.154 47.0283 353.527 49.5825 345.689L49.5834 345.686C52.7275 335.86 62.7288 330.046 77.2321 330.046H77.567H78.125H78.6658C92.5951 331.02 104.214 336.947 113.194 344.077L113.835 343.31C90.9663 323.188 73.1562 290.378 73.1562 236.555C73.1562 210.015 81.0466 186.305 96.7124 166.058L96.8606 165.866L96.8022 165.631C93.3614 151.787 90.6902 127.208 102.474 97.4165L102.475 97.4144L105.402 89.9129L113.213 87.3758C114.843 86.8461 118.474 85.8776 124.219 85.8776C136.936 85.8776 158.495 90.1871 190.356 110.488L190.536 110.602L190.743 110.552C209.568 105.993 229.507 103.388 249.888 103.388H250H250.112C270.493 103.388 290.32 105.993 309.258 110.552L309.465 110.602L309.644 110.488C341.503 90.188 363.063 85.9864 375.781 85.9864C381.535 85.9864 385.166 86.8491 386.788 87.3758L394.598 89.9129L397.525 97.4144L397.526 97.4171C409.31 127.099 406.639 151.678 403.198 165.632L403.14 165.868L403.288 166.059C418.953 186.196 426.844 209.905 426.844 236.555C426.844 286.311 411.592 318.017 391.22 338.41C370.835 358.816 345.271 367.95 324.559 372.453L323.996 372.576L324.197 373.116C327.411 381.758 329.634 392.683 329.634 406.114C329.634 428.517 329.522 447.984 329.411 460.925V460.929V460.945V460.96V460.975V460.991V461.006V461.021V461.036V461.052V461.067V461.082V461.097V461.113V461.128V461.143V461.158V461.173V461.189V461.204V461.219V461.234V461.25V461.265V461.28V461.295V461.31V461.325V461.341V461.356V461.371V461.386V461.401V461.416V461.431V461.447V461.462V461.477V461.492V461.507V461.522V461.537V461.552V461.567V461.582V461.598V461.613V461.628V461.643V461.658V461.673V461.688V461.703V461.718V461.733V461.748V461.763V461.778V461.793V461.808V461.823V461.838V461.853V461.868V461.883V461.898V461.913V461.928V461.943V461.958V461.973V461.988V462.003V462.017V462.032V462.047V462.062V462.077V462.092V462.107V462.122V462.137V462.152V462.166V462.181V462.196V462.211V462.226V462.241V462.256V462.27V462.285V462.3V462.315V462.33V462.344V462.359V462.374V462.389V462.404V462.418V462.433V462.448V462.463V462.477V462.492V462.507V462.522V462.536V462.551V462.566V462.581V462.595V462.61V462.625V462.639V462.654V462.669V462.684V462.698V462.713V462.728V462.742V462.757V462.771V462.786V462.801V462.815V462.83V462.845V462.859V462.874V462.888V462.903V462.918V462.932V462.947V462.961V462.976V462.991V463.005V463.02V463.034V463.049V463.063V463.078V463.092V463.107V463.121V463.136V463.15V463.165V463.179V463.194V463.208V463.223V463.237V463.252V463.266V463.281V463.295V463.31V463.324V463.338V463.353V463.367V463.382V463.396V463.41V463.425V463.439V463.454V463.468V463.482V463.497V463.511V463.525V463.54V463.554V463.568V463.583V463.597V463.611V463.626V463.64V463.654V463.669V463.683V463.697V463.711V463.726V463.74V463.754V463.768V463.783V463.797V463.811V463.825V463.84V463.854V463.868V463.882V463.896V463.911V463.925V463.939V463.953V463.967V463.982V463.996V464.01V464.024V464.038V464.052V464.066V464.081V464.095V464.109V464.123V464.137V464.151V464.165V464.179V464.193V464.207V464.221V464.235V464.25V464.264V464.278V464.292V464.306V464.32V464.334V464.348V464.362V464.376V464.39V464.404V464.418V464.432V464.446V464.459V464.473V464.487V464.501V464.515V464.529V464.543V464.557V464.571V464.585V464.599V464.613V464.626V464.64V464.654V464.668V464.682V464.696V464.71V464.723V464.737V464.751V464.765V464.779V464.793V464.806V464.82V464.834V464.848V464.862V464.875V464.889V464.903V464.917V464.93V464.944V464.958V464.972V464.985V464.999V465.013V465.026V465.04V465.054V465.067V465.081V465.095V465.108V465.122V465.136V465.149V465.163V465.177V465.19V465.204V465.217V465.231V465.245V465.258V465.272V465.285V465.299V465.313V465.326V465.34V465.353V465.367V465.38V465.394V465.407V465.421V465.434V465.448V465.461V465.475V465.488V465.502V465.515V465.529V465.542V465.556V465.569V465.583V465.596V465.609V465.623V465.636V465.65V465.663V465.676V465.69V465.703V465.717V465.73V465.743V465.757V465.77V465.783V465.797V465.81V465.823V465.837V465.85V465.863V465.876V465.89V465.903V465.916V465.93V465.943V465.956V465.969V465.983V465.996V466.009V466.022V466.035V466.049V466.062V466.075V466.088V466.101V466.115V466.128V466.141V466.154V466.167V466.18V466.193V466.207V466.22V466.233V466.246V466.259V466.272V466.285V466.298V466.311V466.324V466.337V466.35V466.364V466.377V466.39V466.403V466.416V466.429V466.442V466.455V466.468V466.481V466.494V466.507V466.519V466.532V466.545V466.558V466.571V466.584V466.597V466.61V466.623V466.636V466.649V466.662V466.674V466.687V466.7V466.713V466.726V466.739V466.752V466.764V466.777V466.79V466.803V466.816V466.828V466.841V466.854V466.867V466.88V466.892V466.905V466.918V466.931V466.943V466.956V466.969V466.981V466.994V467.007V467.019V467.032V467.045V467.057V467.07V467.083V467.095V467.108V467.121V467.133V467.146V467.159V467.171V467.184V467.196V467.209V467.221V467.234V467.247V467.259V467.272V467.284V467.297V467.309V467.322V467.334V467.347V467.359V467.372V467.384V467.397V467.409V467.422V467.434V467.447V467.459V467.471V467.484V467.496V467.509V467.521V467.533V467.546V467.558V467.571V467.583V467.595V467.608V467.62V467.632V467.645V467.657V467.669V467.682V467.694V467.706V467.718V467.731V467.743V467.755V467.768V467.78V467.792V467.804V467.816V467.829V467.841V467.853V467.865V467.877V467.89V467.902V467.914V467.926V467.938V467.95V467.963V467.975V467.987V467.999V468.717L330.084 468.468C350.439 460.948 369.677 450.702 387.349 437.731L387.35 437.731C406.586 423.563 423.587 406.669 437.68 387.376C467.096 347.266 482.643 299.634 482.643 249.716C482.643 218.217 476.491 187.698 464.3 158.923ZM117.169 346.235L116.519 346.994C123.286 353.048 128.159 359.636 130.809 364.586L130.814 364.595L130.819 364.603C134.529 370.903 138.68 375.565 143.465 378.65C148.255 381.74 153.653 383.23 159.821 383.23C164.568 383.23 169.191 382.35 173.017 381.253L173.293 381.174L173.364 380.897C174.029 378.303 174.805 375.818 175.692 373.443L175.893 372.903L175.33 372.78C157.514 368.873 135.835 361.501 117.169 346.235ZM121.215 442.542L120.704 443.399C136.138 453.753 152.581 462.147 170.031 468.469L170.741 468.726L170.7 467.972C170.589 465.922 170.589 463.544 170.589 460.929V460.919L170.589 460.908C170.478 458.311 170.478 455.385 170.478 452.337V451.816L169.957 451.838L169.642 451.851C167.187 451.955 164.843 452.055 162.5 452.055C145.725 452.055 132.078 448.266 121.215 442.542ZM75.4181 362.499L75.4516 362.516L75.4518 362.516L75.4528 362.516L75.4597 362.52L75.4911 362.535C75.5198 362.55 75.5638 362.573 75.6225 362.604C75.7398 362.666 75.916 362.762 76.1458 362.896C76.6053 363.162 77.279 363.578 78.1253 364.167C79.8178 365.345 82.2007 367.219 84.9402 369.99C90.4157 375.528 97.3221 384.656 102.988 398.992L102.99 399.002C102.996 399.021 103.005 399.048 103.017 399.084C103.04 399.157 103.075 399.262 103.122 399.399C103.216 399.672 103.359 400.071 103.559 400.576C103.957 401.587 104.58 403.026 105.477 404.751C107.271 408.2 110.168 412.795 114.581 417.391C123.417 426.592 138.305 435.762 162.5 435.762C169.855 435.762 178.063 434.924 187.227 432.945C187.289 444.283 187.383 454.047 187.455 461.522C187.514 467.618 187.558 472.19 187.558 474.851C187.558 477.637 186.694 480.614 184.736 482.885C182.789 485.144 179.724 486.75 175.223 486.75C173.922 486.75 172.626 486.645 171.112 486.331C71.994 453.325 0.5 359.984 0.5 249.824C0.5 112.192 112.218 0.500244 250 0.500244C387.782 0.500244 499.5 112.192 499.5 249.824C499.5 359.876 428.117 453.325 328.888 486.222C327.376 486.535 325.86 486.641 324.554 486.641C320.053 486.641 317.018 485.035 315.1 482.767C313.17 480.484 312.33 477.48 312.33 474.633C312.33 471.937 312.367 467.183 312.416 460.818C312.441 457.56 312.469 453.881 312.498 449.839C312.581 437.902 312.665 422.81 312.665 406.114C312.665 383.451 305.081 368.309 296.367 360.262C323.89 357.101 352.084 350.205 373.493 332.309C395.215 314.151 409.875 284.737 409.875 236.664C409.875 209.464 400.201 187.127 384.286 169.563C387.014 162.722 395.193 137.378 381.715 103.357L381.626 103.133L381.396 103.062L381.25 103.541C381.396 103.062 381.396 103.062 381.395 103.062L381.395 103.062L381.394 103.062L381.392 103.061L381.386 103.06L381.366 103.054C381.349 103.049 381.325 103.042 381.294 103.034C381.231 103.018 381.141 102.995 381.021 102.968C380.783 102.914 380.429 102.844 379.956 102.774C379.01 102.635 377.591 102.497 375.67 102.497C366.519 102.497 346.059 105.903 312.411 128.665C292.45 123.147 271.057 120.442 249.891 120.334L249.886 120.334C228.608 120.442 207.326 123.147 187.366 128.665C153.718 105.903 133.257 102.497 124.107 102.497C122.186 102.497 120.766 102.635 119.821 102.774C119.348 102.844 118.994 102.914 118.755 102.968C118.636 102.995 118.545 103.018 118.483 103.034C118.463 103.039 118.446 103.044 118.431 103.048C118.424 103.05 118.417 103.052 118.411 103.054L118.391 103.06L118.385 103.061L118.383 103.062L118.382 103.062L118.381 103.062C118.381 103.062 118.381 103.062 118.527 103.541L118.381 103.062L118.151 103.133L118.062 103.357C104.584 137.376 112.762 162.719 115.49 169.562C99.5752 187.019 89.9018 209.357 89.9018 236.664C89.9018 284.629 104.534 314.069 126.199 332.294C147.556 350.261 175.673 357.263 203.092 360.479C196.218 366.94 190.131 377.718 187.936 393.155C181.691 395.951 171.288 399.523 159.821 399.523C145.031 399.523 128.462 393.516 116.059 372.367C116.058 372.365 116.057 372.364 116.056 372.363L116.051 372.354L116.021 372.3C115.994 372.253 115.955 372.184 115.902 372.095C115.798 371.916 115.641 371.655 115.434 371.323C115.02 370.659 114.402 369.711 113.581 368.568C111.941 366.283 109.491 363.213 106.249 360.075C99.7691 353.801 90.0969 347.224 77.3869 346.123L77.3654 346.122H77.3438H77.3435H77.3433H77.343H77.3428H77.3426H77.3423H77.342H77.3418H77.3415H77.3413H77.341H77.3407H77.3405H77.3402H77.34H77.3397H77.3394H77.3391H77.3388H77.3386H77.3383H77.3381H77.3378H77.3375H77.3372H77.3369H77.3366H77.3363H77.3359H77.3356H77.3353H77.335H77.3348H77.3345H77.3343H77.334H77.3338H77.3335H77.3332H77.333H77.3327H77.3324H77.3321H77.3318H77.3315H77.3312H77.3309H77.3306H77.3303H77.33H77.3296H77.3293H77.329H77.3286H77.3283H77.3279H77.3276H77.3272H77.3268H77.3265H77.3261H77.3257H77.3253H77.3249H77.3245H77.3241H77.3237H77.3233H77.3228H77.3224H77.322H77.3215H77.3211H77.3206H77.3202H77.3199H77.3195H77.3192H77.319H77.3187H77.3185H77.3183H77.318H77.3178H77.3175H77.3173H77.317H77.3168H77.3165H77.3162H77.316H77.3157H77.3155H77.3152H77.3149H77.3147H77.3144H77.3141H77.3139H77.3136H77.3133H77.313H77.3128H77.3125H77.3122H77.3119H77.3116H77.3114H77.3111H77.3108H77.3105H77.3102H77.3099H77.3096H77.3093H77.309H77.3087H77.3084H77.3081H77.3078H77.3075H77.3072H77.3069H77.3065H77.3062H77.3059H77.3056H77.3053H77.305H77.3046H77.3043H77.304H77.3036H77.3033H77.303H77.3027H77.3023H77.302H77.3016H77.3013H77.3009H77.3006H77.3002H77.2999H77.2995H77.2992H77.2988H77.2985H77.2981H77.2978H77.2974H77.297H77.2967H77.2963H77.2959H77.2956H77.2952H77.2948H77.2944H77.294H77.2937H77.2933H77.2929H77.2925H77.2921H77.2917H77.2913H77.2909H77.2905H77.2901H77.2897H77.2893H77.2889H77.2885H77.2881H77.2877H77.2873H77.2869H77.2864H77.286H77.2856H77.2852H77.2847H77.2843H77.2839H77.2835H77.283H77.2826H77.2821H77.2817H77.2813H77.2808H77.2804H77.2799H77.2795H77.279H77.2786H77.2781H77.2776H77.2772H77.2767H77.2762H77.2758H77.2753H77.2748H77.2744H77.2739H77.2734H77.2729H77.2724H77.2719H77.2715H77.271H77.2705H77.27H77.2695H77.269H77.2685H77.268H77.2675H77.267H77.2664H77.2659H77.2654H77.2649H77.2644H77.2639H77.2633H77.2628H77.2623H77.2617H77.2612H77.2607H77.2601H77.2596H77.2591H77.2585H77.258H77.2574H77.2569H77.2563H77.2558H77.2552H77.2546H77.2541H77.2535H77.2529H77.2524H77.2518H77.2512H77.2506H77.2501H77.2495H77.2489H77.2483H77.2477H77.2471H77.2465H77.2459H77.2453H77.2447H77.2441H77.2435H77.2429H77.2423H77.2417H77.2411H77.2404H77.2398H77.2392H77.2386H77.2379H77.2373H77.2367H77.236H77.2354H77.2347H77.2341H77.2334H77.2328H77.2321C76.7973 346.122 75.1046 346.156 73.1483 346.445C71.2109 346.73 68.9294 347.276 67.3782 348.344C66.5937 348.885 65.96 349.583 65.681 350.483C65.4001 351.389 65.503 352.422 66.0441 353.578C67.1098 355.856 69.9379 358.747 75.3872 362.478L75.4181 362.499Z" fill="white" stroke="white"/>
<path d="M490.5 247.036C490.5 378.409 382.64 490.5 250 490.5C117.36 490.5 9.5 378.409 9.5 247.036C9.5 115.955 117.068 9.5 250 9.5C382.932 9.5 490.5 115.955 490.5 247.036Z" stroke="black" stroke-width="19"/>
</svg>
