<svg width="500" height="500" viewBox="0 0 500 500" fill="none" xmlns="http://www.w3.org/2000/svg">
<path d="M250 17.8571C281.25 17.8571 311.607 24.1071 340.179 36.4955C367.857 48.4375 392.634 65.625 413.951 87.5C435.268 109.375 452.121 134.933 463.839 163.281C476.004 192.746 482.143 223.996 482.143 256.25C482.143 307.366 466.629 356.138 437.277 397.21C423.214 416.964 406.25 434.263 387.054 448.772C369.42 462.054 350.223 472.545 329.911 480.246C329.911 478.125 329.911 475.67 329.911 472.991C330.022 459.71 330.134 439.732 330.134 416.741C330.134 402.902 327.902 391.63 324.665 382.701C366.183 373.438 427.344 345.089 427.344 242.746C427.344 215.29 419.42 190.848 403.683 170.089C407.143 155.692 409.821 130.357 397.991 99.7768L394.978 91.8527L386.942 89.1741C385.268 88.6161 381.585 87.7232 375.781 87.7232C362.946 87.7232 341.295 92.0759 309.375 112.946C290.402 108.259 270.536 105.58 250.112 105.58H250H249.888C229.464 105.58 209.487 108.259 190.625 112.946C158.705 92.0759 137.054 87.6116 124.219 87.6116C118.415 87.6116 114.732 88.6161 113.058 89.1741L105.022 91.8527L102.009 99.7768C90.1786 130.469 92.8571 155.804 96.317 170.089C80.5804 190.96 72.6562 215.402 72.6562 242.746C72.6562 298.103 90.5134 331.92 113.504 352.679C104.464 345.312 92.7455 339.174 78.683 338.17H78.125H77.567H77.2321C62.6116 338.17 52.3438 344.196 49.1071 354.576C43.8616 371.094 60.0446 382.478 65.4018 386.272L65.9598 386.942L67.6339 387.612C69.4196 388.728 78.9062 395.424 86.4955 414.955C88.7277 421.875 93.5268 431.138 101.674 439.732C87.0536 427.232 73.9955 412.946 62.7232 397.21C33.3705 356.25 17.8571 307.478 17.8571 256.362C17.8571 224.107 23.9955 192.857 36.1607 163.393C47.8795 134.933 64.6205 109.487 86.0491 87.6116C107.366 65.7366 132.254 48.5491 159.821 36.6071C188.393 24.2188 218.75 17.8571 250 17.8571ZM116.853 355.692C135.603 371.429 157.366 379.018 175.223 383.036C174.33 385.491 173.549 388.058 172.879 390.737C169.085 391.853 164.509 392.746 159.821 392.746C147.656 392.746 138.616 386.719 131.25 373.884C128.571 368.75 123.661 361.942 116.853 355.692ZM120.982 454.576C131.92 460.491 145.647 464.397 162.5 464.397C164.955 464.397 167.411 464.286 169.978 464.174C169.978 467.299 169.978 470.313 170.089 472.991C170.089 475.67 170.089 478.125 170.201 480.246C152.79 473.772 136.384 465.179 120.982 454.576ZM250 0C111.942 0 0 114.844 0 256.362C0 369.643 71.6518 465.625 170.982 499.554C172.545 499.888 173.884 500 175.223 500C184.487 500 188.058 493.192 188.058 487.277C188.058 481.138 187.835 465.067 187.723 443.638C178.348 445.759 169.978 446.652 162.5 446.652C114.397 446.652 103.46 409.263 103.46 409.263C92.0759 379.688 75.6696 371.54 75.6696 371.54C53.9063 356.25 75.558 355.692 77.2321 355.692C77.3438 355.692 77.3438 355.692 77.3438 355.692C102.455 357.924 115.625 382.366 115.625 382.366C128.125 404.241 144.866 410.491 159.821 410.491C171.54 410.491 182.143 406.696 188.393 403.795C190.625 387.277 197.098 376.004 204.241 369.531C148.772 363.058 90.4018 341.071 90.4018 242.857C90.4018 214.844 100.112 191.964 116.071 174.107C113.504 167.634 104.911 141.518 118.527 106.25C118.527 106.25 120.312 105.692 124.107 105.692C133.147 105.692 153.571 109.152 187.277 132.589C207.254 126.897 228.571 124.107 249.888 123.996C271.094 124.107 292.522 126.897 312.5 132.589C346.205 109.152 366.629 105.692 375.67 105.692C379.464 105.692 381.25 106.25 381.25 106.25C394.866 141.518 386.272 167.634 383.705 174.107C399.665 192.076 409.375 214.955 409.375 242.857C409.375 341.295 350.893 362.946 295.201 369.308C304.129 377.232 312.165 392.857 312.165 416.741C312.165 451.005 311.83 478.683 311.83 487.054C311.83 493.08 315.29 499.888 324.554 499.888C325.893 499.888 327.455 499.777 329.018 499.442C428.46 465.625 500 369.531 500 256.362C500 114.844 388.058 0 250 0Z" fill="black"/>
</svg>
