<svg width="500" height="500" viewBox="0 0 500 500" fill="none" xmlns="http://www.w3.org/2000/svg">
<ellipse cx="250" cy="253.452" rx="250" ry="246.548" fill="black"/>
<path d="M250 17.6106C281.25 17.6106 311.607 23.7743 340.179 35.9916C367.857 47.7687 392.634 64.7189 413.951 86.2919C435.268 107.865 452.121 133.07 463.839 161.027C476.004 190.084 482.143 220.903 482.143 252.712C482.143 303.122 466.629 351.221 437.277 391.725C423.214 411.207 406.25 428.267 387.054 442.576C369.42 455.674 350.223 466.02 329.911 473.615C329.911 471.523 329.911 469.102 329.911 466.46C330.022 453.362 330.134 433.661 330.134 410.987C330.134 397.339 327.902 386.222 324.665 377.417C366.183 368.281 427.344 340.325 427.344 239.394C427.344 212.318 419.42 188.213 403.683 167.741C407.143 153.542 409.821 128.557 397.991 98.3991L394.978 90.5844L386.942 87.9428C385.268 87.3925 381.585 86.512 375.781 86.512C362.946 86.512 341.295 90.8046 309.375 111.387C290.402 106.764 270.536 104.123 250.112 104.123H250H249.888C229.464 104.123 209.487 106.764 190.625 111.387C158.705 90.8046 137.054 86.4019 124.219 86.4019C118.415 86.4019 114.732 87.3925 113.058 87.9428L105.022 90.5844L102.009 98.3991C90.1786 128.667 92.8571 153.652 96.317 167.741C80.5804 188.323 72.6563 212.428 72.6563 239.394C72.6563 293.987 90.5134 327.337 113.504 347.809C104.464 340.545 92.7455 334.491 78.683 333.5H78.125H77.567H77.2321C62.6116 333.5 52.3438 339.444 49.1071 349.68C43.8616 365.97 60.0446 377.197 65.4018 380.939L65.9598 381.599L67.6339 382.26C69.4196 383.36 78.9063 389.964 86.4955 409.226C88.7277 416.05 93.5268 425.186 101.674 433.661C87.0536 421.333 73.9955 407.245 62.7232 391.725C33.3705 351.331 17.8571 303.232 17.8571 252.822C17.8571 221.013 23.9955 190.194 36.1607 161.137C47.8795 133.07 64.6205 107.975 86.0491 86.4019C107.366 64.829 132.254 47.8788 159.821 36.1017C188.393 23.8844 218.75 17.6106 250 17.6106ZM116.853 350.781C135.603 366.3 157.366 373.785 175.223 377.747C174.33 380.169 173.549 382.7 172.879 385.342C169.085 386.442 164.509 387.323 159.821 387.323C147.656 387.323 138.616 381.379 131.25 368.722C128.571 363.659 123.661 356.945 116.853 350.781ZM120.982 448.299C131.92 454.133 145.647 457.985 162.5 457.985C164.955 457.985 167.411 457.875 169.978 457.765C169.978 460.847 169.978 463.819 170.089 466.46C170.089 469.102 170.089 471.523 170.201 473.615C152.79 467.231 136.384 458.756 120.982 448.299ZM250 0C111.942 0 0 113.258 0 252.822C0 364.539 71.6518 459.196 170.982 492.656C172.545 492.986 173.884 493.096 175.223 493.096C184.487 493.096 188.058 486.382 188.058 480.549C188.058 474.495 187.835 458.646 187.723 437.513C178.348 439.604 169.978 440.485 162.5 440.485C114.397 440.485 103.46 403.613 103.46 403.613C92.0759 374.445 75.6696 366.41 75.6696 366.41C53.9063 351.331 75.558 350.781 77.2321 350.781C77.3437 350.781 77.3438 350.781 77.3438 350.781C102.455 352.982 115.625 377.087 115.625 377.087C128.125 398.66 144.866 404.823 159.821 404.823C171.54 404.823 182.143 401.081 188.393 398.219C190.625 381.93 197.098 370.813 204.241 364.429C148.772 358.045 90.4018 336.362 90.4018 239.504C90.4018 211.877 100.112 189.314 116.071 171.703C113.504 165.319 104.911 139.564 118.527 104.783C118.527 104.783 120.313 104.233 124.107 104.233C133.147 104.233 153.571 107.645 187.277 130.759C207.254 125.145 228.571 122.394 249.888 122.283C271.094 122.394 292.522 125.145 312.5 130.759C346.205 107.645 366.629 104.233 375.67 104.233C379.464 104.233 381.25 104.783 381.25 104.783C394.866 139.564 386.272 165.319 383.705 171.703C399.665 189.424 409.375 211.987 409.375 239.504C409.375 336.582 350.893 357.935 295.201 364.209C304.129 372.024 312.165 387.433 312.165 410.987C312.165 444.777 311.83 472.074 311.83 480.329C311.83 486.272 315.29 492.986 324.554 492.986C325.893 492.986 327.455 492.876 329.018 492.546C428.46 459.196 500 364.429 500 252.822C500 113.258 388.058 0 250 0Z" fill="white"/>
</svg>
