<svg width="500" height="500" viewBox="0 0 500 500" fill="none" xmlns="http://www.w3.org/2000/svg">
<path d="M492.697 240.877C498.492 243.395 498.925 244.407 499.329 250.275C499.329 297.263 499.773 344.25 499.319 391.233C498.437 447.319 449.843 498.988 390.299 499.547C296.523 499.826 202.748 500.414 108.982 499.537C52.9681 498.674 1.56716 450.525 0.639583 391.228C-0.213194 297.263 -0.213194 203.287 0.639583 109.322C1.52228 53.0414 50.3201 1.5618 109.66 1.00343H249.98C249.98 1.00343 256.522 1.92075 258.836 6.3877C261.948 12.3902 257.166 20.4516 249.98 20.9452C203.062 20.9452 156.144 20.5114 109.226 20.9501C63.3112 21.6581 21.0264 60.9981 20.5776 110.125C20.2983 203.741 19.7348 297.367 20.5826 390.984C21.3107 437.064 61.0571 479.146 109.785 479.605C203.436 479.884 297.087 480.472 390.733 479.6C436.678 478.892 478.908 439.133 479.381 390.425V250.275C479.381 250.275 482.039 237.896 492.697 240.877V240.877ZM488.059 1.00343C488.253 0.998448 488.468 0.998448 488.692 1.00343H489.355L489.919 1.02337L490.069 1.02836L490.093 1.03335H490.138C495.205 1.6316 499.13 5.85924 499.329 10.9743V170.508C498.925 180.788 479.95 184.981 479.381 170.508V35.044L257.031 257.324C248.463 265.112 243.786 259.269 241.462 255.465C239.143 251.656 239.886 246.566 242.928 243.226L465.278 20.9402L328.989 20.9152C321.623 20.0428 321.882 17.9938 320.556 14.7881C318.062 8.77073 322.72 1.27763 329.771 1.00343H488.059V1.00343Z" fill="black"/>
<path fill-rule="evenodd" clip-rule="evenodd" d="M488.592 1.00373C488.368 0.998757 488.153 0.998757 487.959 1.00373H329.672C322.62 1.2772 317.962 8.75053 320.456 14.7521C320.623 15.1544 320.764 15.5384 320.899 15.9041C321.838 18.4449 322.45 20.1023 328.889 20.863L465.178 20.8879L242.828 242.587C239.786 245.918 239.043 250.995 241.362 254.794C243.686 258.587 248.364 264.415 256.931 256.648L479.282 34.9544V170.061C479.85 184.496 498.826 180.314 499.23 170.061V10.9483C499.03 5.84672 495.105 1.63024 490.038 1.03357H489.994L489.969 1.02859L489.819 1.02362L489.256 1.00373H488.592Z" fill="white"/>
<path d="M487.959 1.00373V1.75373H487.968L487.978 1.75348L487.959 1.00373ZM488.592 1.00373L488.576 1.75355L488.584 1.75373H488.592V1.00373ZM329.672 1.00373V0.253729H329.657L329.643 0.254293L329.672 1.00373ZM320.456 14.7521L321.148 14.4646L321.148 14.4643L320.456 14.7521ZM320.899 15.9041L321.603 15.6443L321.603 15.6443L320.899 15.9041ZM328.889 20.863L328.801 21.6078L328.844 21.613L328.888 21.613L328.889 20.863ZM465.178 20.8879L465.708 21.419L466.992 20.1382L465.178 20.1379L465.178 20.8879ZM242.828 242.587L242.298 242.056L242.286 242.068L242.274 242.081L242.828 242.587ZM241.362 254.794L240.722 255.184L240.722 255.185L241.362 254.794ZM256.931 256.648L257.435 257.204L257.448 257.192L257.461 257.179L256.931 256.648ZM479.282 34.9544H480.032V33.1475L478.752 34.4233L479.282 34.9544ZM479.282 170.061H478.532V170.076L478.532 170.091L479.282 170.061ZM499.23 170.061L499.979 170.091L499.98 170.076V170.061H499.23ZM499.23 10.9483H499.98V10.9336L499.979 10.919L499.23 10.9483ZM490.038 1.03357L490.126 0.288712L490.082 0.283565H490.038V1.03357ZM489.994 1.03357L489.847 1.76905L489.919 1.78357H489.994V1.03357ZM489.969 1.02859L490.116 0.293103L490.055 0.281051L489.994 0.279005L489.969 1.02859ZM489.819 1.02362L489.793 1.77315L489.794 1.7732L489.819 1.02362ZM489.256 1.00373L489.282 0.254196L489.269 0.253729H489.256V1.00373ZM487.978 1.75348C488.159 1.74886 488.361 1.7488 488.576 1.75355L488.609 0.253913C488.374 0.248716 488.148 0.248655 487.94 0.253974L487.978 1.75348ZM329.672 1.75373H487.959V0.253729H329.672V1.75373ZM321.148 14.4643C318.862 8.96117 323.154 2.00707 329.701 1.75317L329.643 0.254293C322.086 0.547341 317.062 8.53989 319.763 15.0398L321.148 14.4643ZM321.603 15.6443C321.468 15.2801 321.322 14.8826 321.148 14.4646L319.763 15.0395C319.923 15.4261 320.06 15.7967 320.196 16.1639L321.603 15.6443ZM328.977 20.1182C325.788 19.7415 324.196 19.1549 323.289 18.4566C322.408 17.7793 322.08 16.9367 321.603 15.6443L320.196 16.1639C320.657 17.4124 321.104 18.6689 322.374 19.6456C323.617 20.6014 325.55 21.2238 328.801 21.6078L328.977 20.1182ZM465.178 20.1379L328.889 20.113L328.888 21.613L465.178 21.6379L465.178 20.1379ZM243.358 243.118L465.708 21.419L464.649 20.3567L242.298 242.056L243.358 243.118ZM242.002 254.403C239.877 250.921 240.538 246.207 243.382 243.092L242.274 242.081C239.034 245.629 238.209 251.068 240.722 255.184L242.002 254.403ZM256.428 256.093C252.264 259.867 249.243 260.179 247.071 259.355C244.796 258.492 243.158 256.29 242.001 254.402L240.722 255.185C241.889 257.091 243.752 259.7 246.539 260.757C249.43 261.854 253.031 261.196 257.435 257.204L256.428 256.093ZM478.752 34.4233L256.402 256.117L257.461 257.179L479.811 35.4855L478.752 34.4233ZM480.032 170.061V34.9544H478.532V170.061H480.032ZM498.48 170.032C498.298 174.66 493.875 178.075 489.237 178.573C486.952 178.819 484.724 178.333 483.047 177.005C481.385 175.688 480.166 173.466 480.031 170.032L478.532 170.091C478.681 173.873 480.047 176.542 482.116 178.18C484.169 179.807 486.817 180.342 489.397 180.065C494.491 179.517 499.757 175.715 499.979 170.091L498.48 170.032ZM498.48 10.9483V170.061H499.98V10.9483H498.48ZM489.951 1.77842C494.653 2.3322 498.295 6.24728 498.48 10.9776L499.979 10.919C499.765 5.44617 495.557 0.928277 490.126 0.288712L489.951 1.77842ZM489.994 1.78357H490.038V0.283565H489.994V1.78357ZM489.822 1.76408L489.847 1.76905L490.14 0.298078L490.116 0.293103L489.822 1.76408ZM489.794 1.7732L489.944 1.77818L489.994 0.279005L489.844 0.274031L489.794 1.7732ZM489.229 1.75326L489.793 1.77315L489.846 0.274083L489.282 0.254196L489.229 1.75326ZM488.592 1.75373H489.256V0.253729H488.592V1.75373Z" fill="white"/>
</svg>
