<svg width="500" height="500" viewBox="0 0 500 500" fill="none" xmlns="http://www.w3.org/2000/svg">
<rect x="8.5" y="8.49969" width="483" height="483" rx="91.5" fill="black" stroke="white" stroke-width="17"/>
<path d="M400.333 284V400.075H336.035V291.778C336.035 264.573 326.73 246.007 303.464 246.007C285.682 246.007 275.114 258.521 270.459 270.614C268.763 274.939 268.328 280.963 268.328 287.026V400.069H204.02C204.02 400.069 204.878 216.653 204.02 197.653H268.328V226.336C268.204 226.558 268.033 226.786 267.909 226.997H268.328V226.336C276.863 212.571 292.132 192.895 326.29 192.895C368.611 192.901 400.333 221.822 400.333 284ZM136.726 100.075C114.728 100.075 100.333 115.177 100.333 135.037C100.333 154.469 114.304 170.031 135.873 170.031H136.308C158.725 170.031 172.68 154.469 172.68 135.037C172.261 115.177 158.73 100.075 136.726 100.075ZM104.145 400.069H168.444V197.659H104.145V400.069Z" stroke="white" stroke-width="17" stroke-miterlimit="10" stroke-linecap="round" stroke-linejoin="round"/>
<rect x="8.5" y="8.49969" width="483" height="483" rx="91.5" stroke="white" stroke-width="17"/>
</svg>
