<svg width="500" height="500" viewBox="0 0 500 500" fill="none" xmlns="http://www.w3.org/2000/svg">
<path d="M378.08 19.6387H491.24V132.343H378.08V19.6387Z" fill="black"/>
<rect x="10" y="11" width="480" height="479" rx="100" fill="white" stroke="white" stroke-width="20"/>
<path fill-rule="evenodd" clip-rule="evenodd" d="M488.615 1.00365C488.394 0.998782 488.183 0.998782 487.992 1.00365H332.237C325.298 1.27167 320.715 8.5958 323.168 14.4775C323.333 14.8718 323.472 15.2481 323.605 15.6066C324.528 18.0967 325.13 19.721 331.466 20.4664L465.575 20.4908L246.783 237.764C243.789 241.029 243.058 246.004 245.34 249.727C247.627 253.445 252.23 259.156 260.66 251.544L479.453 34.2766V166.686C480.012 180.832 498.684 176.734 499.082 166.686V10.7497C498.886 5.74996 495.024 1.61766 490.038 1.0329H489.994L489.969 1.02802L489.822 1.02315L489.267 1.00365H488.615Z" fill="black"/>
<path d="M487.992 1.00365V1.75365H488.001L488.011 1.75341L487.992 1.00365ZM488.615 1.00365L488.598 1.75347L488.607 1.75365H488.615V1.00365ZM332.237 1.00365V0.253655H332.222L332.208 0.254214L332.237 1.00365ZM323.168 14.4775L323.861 14.1891L323.861 14.1888L323.168 14.4775ZM323.605 15.6066L324.308 15.3458L324.308 15.3458L323.605 15.6066ZM331.466 20.4664L331.379 21.2113L331.422 21.2164L331.466 21.2164L331.466 20.4664ZM465.575 20.4908L466.104 21.023L467.395 19.7411L465.576 19.7408L465.575 20.4908ZM246.783 237.764L246.254 237.231L246.242 237.244L246.23 237.257L246.783 237.764ZM245.34 249.727L244.701 250.119L244.701 250.12L245.34 249.727ZM260.66 251.544L261.163 252.101L261.176 252.089L261.189 252.077L260.66 251.544ZM479.453 34.2766H480.203V32.4748L478.925 33.7444L479.453 34.2766ZM479.453 166.686H478.703V166.701L478.704 166.716L479.453 166.686ZM499.082 166.686L499.831 166.716L499.832 166.701V166.686H499.082ZM499.082 10.7497H499.832V10.735L499.831 10.7202L499.082 10.7497ZM490.038 1.0329L490.125 0.288001L490.082 0.282895H490.038V1.0329ZM489.994 1.0329L489.848 1.76852L489.92 1.7829H489.994V1.0329ZM489.969 1.02802L490.115 0.2924L490.055 0.280459L489.994 0.278431L489.969 1.02802ZM489.822 1.02315L489.796 1.77268L489.797 1.77273L489.822 1.02315ZM489.267 1.00365L489.294 0.254118L489.281 0.253655H489.267V1.00365ZM488.011 1.75341C488.189 1.74888 488.388 1.74882 488.598 1.75347L488.631 0.253837C488.4 0.248741 488.177 0.248681 487.972 0.253898L488.011 1.75341ZM332.237 1.75365H487.992V0.253655H332.237V1.75365ZM323.861 14.1888C321.617 8.80963 325.828 2.00177 332.266 1.7531L332.208 0.254214C324.768 0.541573 319.813 8.38197 322.476 14.7663L323.861 14.1888ZM324.308 15.3458C324.176 14.9889 324.031 14.5991 323.861 14.1891L322.476 14.7659C322.634 15.1444 322.768 15.5074 322.902 15.8673L324.308 15.3458ZM331.554 19.7216C328.417 19.3524 326.853 18.7777 325.962 18.0954C325.099 17.4342 324.778 16.6125 324.308 15.3458L322.902 15.8673C323.355 17.0907 323.797 18.3262 325.05 19.2861C326.275 20.2248 328.18 20.835 331.379 21.2113L331.554 19.7216ZM465.576 19.7408L331.467 19.7164L331.466 21.2164L465.575 21.2408L465.576 19.7408ZM247.311 238.296L466.104 21.023L465.047 19.9586L246.254 237.231L247.311 238.296ZM245.979 249.335C243.893 245.93 244.541 241.318 247.336 238.27L246.23 237.257C243.038 240.739 242.224 246.077 244.701 250.119L245.979 249.335ZM260.158 250.988C256.063 254.685 253.094 254.989 250.961 254.183C248.727 253.338 247.117 251.184 245.979 249.334L244.701 250.12C245.85 251.988 247.685 254.548 250.431 255.586C253.28 256.662 256.827 256.016 261.163 252.101L260.158 250.988ZM478.925 33.7444L260.132 251.012L261.189 252.077L479.982 34.8087L478.925 33.7444ZM480.203 166.686V34.2766H478.703V166.686H480.203ZM498.332 166.656C498.154 171.18 493.81 174.525 489.248 175.013C487.002 175.254 484.812 174.778 483.165 173.478C481.533 172.191 480.335 170.018 480.202 166.656L478.704 166.716C478.85 170.427 480.196 173.047 482.236 174.656C484.259 176.252 486.867 176.776 489.408 176.505C494.421 175.968 499.613 172.24 499.831 166.716L498.332 166.656ZM498.332 10.7497V166.686H499.832V10.7497H498.332ZM489.951 1.77779C494.574 2.32008 498.151 6.15295 498.332 10.7791L499.831 10.7202C499.62 5.34698 495.473 0.915232 490.125 0.288001L489.951 1.77779ZM489.994 1.7829H490.038V0.282895H489.994V1.7829ZM489.823 1.76364L489.848 1.76852L490.14 0.297274L490.115 0.2924L489.823 1.76364ZM489.797 1.77273L489.944 1.77761L489.994 0.278431L489.847 0.273556L489.797 1.77273ZM489.241 1.75319L489.796 1.77268L489.848 0.273608L489.294 0.254118L489.241 1.75319ZM488.615 1.75365H489.267V0.253655H488.615V1.75365Z" fill="black"/>
</svg>
