<svg width="500" height="500" viewBox="0 0 500 500" fill="none" xmlns="http://www.w3.org/2000/svg">
<path d="M493.166 240.359C498.967 242.881 499.401 243.895 499.805 249.775C499.805 296.857 500.25 343.939 499.796 391.015C498.912 447.214 450.272 498.986 390.671 499.546C296.806 499.826 202.941 500.415 109.086 499.536C53.0186 498.672 1.56866 450.426 0.640192 391.01C-0.213397 296.857 -0.213397 202.693 0.640192 108.539C1.52373 52.146 50.368 0.563234 109.765 0.00374657H250.218C250.218 0.00374657 256.767 0.922903 259.083 5.3988C262.198 11.4133 257.411 19.4909 250.218 19.9854C203.255 19.9854 156.293 19.5508 109.331 19.9904C63.3715 20.6998 21.0465 60.1187 20.5972 109.344C20.3177 203.148 19.7536 296.962 20.6022 390.766C21.331 436.938 61.1153 479.105 109.89 479.564C203.63 479.844 297.37 480.434 391.105 479.559C437.094 478.85 479.364 439.011 479.838 390.206V249.775C479.838 249.775 482.499 237.371 493.166 240.359ZM488.524 0.00374657C488.719 -0.00124886 488.933 -0.00124886 489.158 0.00374657H489.822L490.386 0.0237268L490.536 0.0287243L490.561 0.0337217H490.606C495.677 0.633172 499.606 4.86929 499.805 9.99459V169.848C499.401 180.149 480.408 184.35 479.838 169.848V34.1125L257.276 256.838C248.7 264.641 244.018 258.787 241.692 254.975C239.371 251.159 240.115 246.058 243.16 242.711L465.722 19.9804L329.302 19.9555C321.929 19.0813 322.189 17.0281 320.861 13.8161C318.365 7.78661 323.028 0.278495 330.086 0.00374657H488.524Z" fill="white"/>
</svg>
