<svg width="533" height="495" viewBox="0 0 533 495" fill="none" xmlns="http://www.w3.org/2000/svg">
<g filter="url(#filter0_d_85_54)">
<path d="M93.5 23C98.1667 21 107.833 20.3333 122.5 21C137.167 21.3333 147.667 22.6667 154 25L166.5 29C176.833 36 182.667 39.5 184 39.5C197.667 50.1666 205.5 64.1666 207.5 81.5C209.5 88.8333 209.833 95.5 208.5 101.5C208.5 103.5 207.833 107.833 206.5 114.5L201.5 126L195.5 134.5C193.5 134.833 192.333 135 192 135C179.667 137 170.167 137.333 163.5 136C156.833 134.333 151 130.667 146 125C145 123 144.5 121.167 144.5 119.5C144.833 117.833 145.333 116.333 146 115L148.5 107C152.833 96.3333 152.5 87.3333 147.5 80C147.5 79 145.833 77.1667 142.5 74.5C139.167 71.8333 136.5 69.8333 134.5 68.5C132.833 67.1667 129.667 67 125 68C117 71.3333 110.167 81.5 104.5 98.5C97.8333 107.167 93.1667 118.5 90.5 132.5C86.5 157.5 84.5 171.667 84.5 175L84 186V190.5C83.3333 191.167 83.6667 205.667 85 234C85.3333 235.667 86 238 87 241C88 244.667 89.5 250.667 91.5 259L98 270C99.6667 271 101.833 274 104.5 279C106.167 279 107.5 280.167 108.5 282.5C110.833 284.833 111.833 286.167 111.5 286.5C113.167 286.833 115.667 287.833 119 289.5C128 294.167 135.833 293.167 142.5 286.5C144.833 284.167 147.667 281 151 277C154.667 272.667 157.333 269.333 159 267C161 264.333 164 261.833 168 259.5C179 251.167 188.5 251.5 196.5 260.5C198.167 263.167 198.333 269.667 197 280C196 290 191.333 300.5 183 311.5C182.333 313.5 180.167 316.833 176.5 321.5C172.833 325.833 169 329.333 165 332C164.333 334.333 151.667 336 127 337C125.667 337 123 336.667 119 336C115.333 337 110.333 336.5 104 334.5C98 332.5 94.6667 331.5 94 331.5L87.5 330C84.8333 330 82.1667 329.167 79.5 327.5C76.8333 325.833 72.3333 323 66 319C60 314.667 55.3333 311.167 52 308.5C42 300.5 34.8333 291.333 30.5 281C29.1667 278.667 28.3333 275.5 28 271.5C27.6667 267.167 27 264 26 262C23.3333 259.333 22 255 22 249C22.3333 243 22 235.667 21 227C21 223 21.1667 220.667 21.5 220C19.8333 218.333 19.1667 215.5 19.5 211.5C19.8333 207.167 20 201.333 20 194C21 192 21.3333 186.167 21 176.5C21 166.5 21.3333 159 22 154C20.6667 151 20.5 146.667 21.5 141L22 126C22.3333 120 23.8333 113.667 26.5 107C26.8333 104 27.5 100.5 28.5 96.5C29.5 92.1667 33.8333 83.6667 41.5 71C41.5 68.3333 44 65 49 61C49 59.6667 50.3333 57.6667 53 55C55.6667 52.3333 58.6667 49 62 45C66.6667 39.3333 71.8333 35.1666 77.5 32.5C83.1667 29.8333 88.5 26.6667 93.5 23Z" fill="#7B1A28"/>
<path d="M280 253.394C281.667 248.394 281.5 237.727 279.5 221.394C279.5 216.06 278 208.227 275 197.894C252.333 201.56 240.333 203.394 239 203.394C227.333 205.06 219.167 205.894 214.5 205.894C210.167 205.894 207.333 205.727 206 205.394C203.333 204.727 202 201.894 202 196.894C202 191.56 203.333 186.894 206 182.894C208.667 178.56 211.167 175.894 213.5 174.894C218.5 171.894 225.833 168.727 235.5 165.394C235.5 164.727 243.667 162.06 260 157.394C270.333 152.727 283.5 149.394 299.5 147.394C300.833 147.06 301.833 146.894 302.5 146.894L311 145.394H325.5L337 148.894C341.333 150.227 348.167 155.06 357.5 163.394L358.5 166.394C361.167 168.394 362.5 169.727 362.5 170.394C362.5 171.06 362.667 172.06 363 173.394C363 181.727 360.667 186.727 356 188.394C354.667 188.727 351 188.56 345 187.894C333.667 186.56 326.5 186.894 323.5 188.894C323.5 192.227 324 195.06 325 197.394C326 199.394 328 208.227 331 223.894C331 226.227 332.333 233.394 335 245.394C338 257.06 339.833 270.227 340.5 284.894C344.167 292.894 346 315.06 346 351.394C346.333 353.394 346.5 356.227 346.5 359.894C345.5 361.894 345 366.894 345 374.894C344.333 377.56 344 380.894 344 384.894C343.333 387.227 342.833 390.227 342.5 393.894C342.167 397.227 341.833 399.894 341.5 401.894C340.5 407.56 339 411.394 337 413.394C335.333 415.06 334 419.894 333 427.894C333 428.56 331.667 430.894 329 434.894C326.667 438.894 324.5 441.56 322.5 442.894L318.5 447.394C318.5 449.394 315.167 453.727 308.5 460.394L305 464.394C303 465.727 298.667 470.06 292 477.394C291.667 478.727 287.667 480.56 280 482.894C272.667 485.227 264.667 485.227 256 482.894C251.333 482.227 246.333 479.227 241 473.894C239.667 474.227 238.833 474.227 238.5 473.894C235.833 471.227 230.5 468.227 222.5 464.894C221.833 465.56 217.833 462.56 210.5 455.894C208.833 455.56 202.667 449.227 192 436.894C191.667 435.227 190 431.394 187 425.394C187 425.06 186.167 422.394 184.5 417.394C183.167 412.06 182.167 404.56 181.5 394.894V391.394C181.5 389.394 183.5 383.394 187.5 373.394C194.167 365.727 202.5 365.56 212.5 372.894C213.5 378.227 215.333 383.06 218 387.394C220.667 391.394 222.5 395.227 223.5 398.894C225.833 407.227 231.833 416.894 241.5 427.894C245.167 431.56 250.167 433.56 256.5 433.894C257.833 433.56 263 429.56 272 421.894C273.333 420.56 274.667 418.227 276 414.894C279.333 410.227 281 407.394 281 406.394C281.333 405.394 282.167 403.06 283.5 399.394C283.5 399.06 284.833 395.394 287.5 388.394C290.5 383.06 291.167 375.06 289.5 364.394C289.167 364.06 289 362.894 289 360.894C288 352.894 287.333 348.06 287 346.394V341.894C286.667 341.56 286.5 341.06 286.5 340.394L287.5 330.394C286.167 328.394 284.667 323.06 283 314.394C279.667 300.06 279.333 288.394 282 279.394C282 279.06 281.667 277.727 281 275.394C280.333 272.727 280.167 270.227 280.5 267.894L280 253.394Z" fill="#D4AF37"/>
<path d="M431.5 236.365C431.167 237.698 431 240.365 431 244.365C431 248.365 430.667 251.865 430 254.865C429.333 257.865 429.333 261.532 430 265.865C431.333 271.865 434.167 279.198 438.5 287.865C438.5 288.865 441 291.532 446 295.865C447.333 296.198 448.667 296.532 450 296.865C451.667 297.198 453 297.698 454 298.365C455 298.698 457.333 298.532 461 297.865C464.667 296.865 467 296.032 468 295.365C469.333 294.365 471.833 292.365 475.5 289.365C479.167 284.698 483.167 281.532 487.5 279.865C493.833 273.865 499.833 268.698 505.5 264.365C510.833 263.365 514.333 263.032 516 263.365C517.667 263.698 519.5 265.032 521.5 267.365C526.167 272.698 527.5 279.532 525.5 287.865C522.833 297.198 517.833 306.032 510.5 314.365C509.167 316.698 506.667 318.865 503 320.865C502.333 321.532 501.333 323.032 500 325.365L490.5 334.865C488.5 334.865 487.167 335.865 486.5 337.865C485.833 339.865 481.5 342.365 473.5 345.365C463.5 345.365 454.667 344.365 447 342.365C430.333 338.698 418.5 334.198 411.5 328.865L402 322.865C401.333 321.532 398.167 319.698 392.5 317.365L386 309.365L378.5 301.365L373.5 292.365C372.5 291.032 371.833 288.532 371.5 284.865C371.167 280.865 370.667 277.532 370 274.865C370.333 273.865 370.5 270.198 370.5 263.865C371.167 260.865 371.5 257.198 371.5 252.865C372.167 251.865 372.167 248.365 371.5 242.365L372 237.865V230.865C372 225.532 372.667 219.865 374 213.865C375.333 207.865 376.667 201.532 378 194.865C378 190.532 378.5 186.698 379.5 183.365C378.5 180.365 378.667 173.032 380 161.365V158.365C380 155.032 380.167 152.365 380.5 150.365V146.865L381.5 116.365C381.5 115.365 382.333 111.032 384 103.365C384 99.365 385.5 92.865 388.5 83.865C390.5 80.5317 391.5 77.6984 391.5 75.3651C391.5 73.6984 392 70.365 393 65.365C394.667 63.365 395.833 58.865 396.5 51.865C396.833 51.865 397.667 48.1984 399 40.865C399 36.865 400.833 32.365 404.5 27.365C405.167 25.365 408.167 23.0317 413.5 20.365H414C415.333 19.6984 420.333 18.865 429 17.865C433 17.865 438.167 19.1984 444.5 21.865C446.167 21.865 450.833 24.365 458.5 29.365C462.5 34.0317 461.333 44.6984 455 61.365C455 64.365 453.667 68.865 451 74.865C451 77.865 450.5 81.365 449.5 85.365C449.5 88.365 447.333 100.365 443 121.365C439 142.032 435.167 180.365 431.5 236.365Z" fill="#347484"/>
</g>
<defs>
<filter id="filter0_d_85_54" x="15" y="17.8651" width="517.5" height="476.529" filterUnits="userSpaceOnUse" color-interpolation-filters="sRGB">
<feFlood flood-opacity="0" result="BackgroundImageFix"/>
<feColorMatrix in="SourceAlpha" type="matrix" values="0 0 0 0 0 0 0 0 0 0 0 0 0 0 0 0 0 0 127 0" result="hardAlpha"/>
<feOffset dy="4"/>
<feGaussianBlur stdDeviation="2"/>
<feComposite in2="hardAlpha" operator="out"/>
<feColorMatrix type="matrix" values="0 0 0 0 0 0 0 0 0 0 0 0 0 0 0 0 0 0 0.25 0"/>
<feBlend mode="normal" in2="BackgroundImageFix" result="effect1_dropShadow_85_54"/>
<feBlend mode="normal" in="SourceGraphic" in2="effect1_dropShadow_85_54" result="shape"/>
</filter>
</defs>
</svg>
