<svg width="500" height="500" viewBox="0 0 500 500" fill="none" xmlns="http://www.w3.org/2000/svg">
<path d="M134.834 134.071H249.5V117H134.834H128.759H128V134.071H128.759H134.834Z" fill="white"/>
<path d="M128.759 185.283H128V202.354H128.759H134.834H371V185.283H134.834H128.759Z" fill="white"/>
<path d="M128.759 253.566H128V271.535H128.759H134.834H371V253.566H134.834H128.759Z" fill="white"/>
<path d="M128.759 323.646H128V340.717H128.759H134.834H371V323.646H134.834H128.759Z" fill="white"/>
<path d="M128.759 391.929H128V409H128.759H134.834H371V391.929H134.834H128.759Z" fill="white"/>
<mask id="path-6-inside-1_157_59" fill="white">
<path fill-rule="evenodd" clip-rule="evenodd" d="M400 17H17V483H483V100H500V483V500H483H17H0V483V17V0H17H400V17Z"/>
</mask>
<path fill-rule="evenodd" clip-rule="evenodd" d="M400 17H17V483H483V100H500V483V500H483H17H0V483V17V0H17H400V17Z" fill="white"/>
<path d="M400 17V18H401V17H400ZM17 17V16H16V17H17ZM17 483H16V484H17V483ZM483 483V484H484V483H483ZM483 100V99H482V100H483ZM500 100H501V99H500V100ZM500 500V501H501V500H500ZM0 500H-1V501H0V500ZM0 0V-1H-1V0H0ZM400 0H401V-1H400V0ZM400 16H17V18H400V16ZM16 17V483H18V17H16ZM17 484H483V482H17V484ZM484 483V100H482V483H484ZM500 99H483V101H500V99ZM501 483V100H499V483H501ZM501 500V483H499V500H501ZM483 501H500V499H483V501ZM17 501H483V499H17V501ZM0 501H17V499H0V501ZM-1 483V500H1V483H-1ZM-1 17V483H1V17H-1ZM-1 0V17H1V0H-1ZM17 -1H0V1H17V-1ZM400 -1H17V1H400V-1ZM401 17V0H399V17H401Z" fill="white" mask="url(#path-6-inside-1_157_59)"/>
<path d="M392 97.5C392 24.3 392 2 392 0" stroke="white" stroke-width="16"/>
<path d="M384 97C471.089 97 497.621 97 500 97" stroke="white" stroke-width="16"/>
<path fill-rule="evenodd" clip-rule="evenodd" d="M388.372 12.37L399.301 0H400.047L400.124 0.0683484L400.619 0.505382L401.112 0.941092L401.603 1.37548L402.094 1.80855L402.582 2.2403L403.07 2.67073L403.555 3.09985L404.039 3.52765L404.522 3.95415L405.003 4.37933L405.483 4.80321L405.962 5.22578L406.438 5.64705L406.914 6.06702L407.388 6.48568L407.86 6.90305L408.331 7.31912L408.8 7.73389L409.268 8.14738L410.2 8.97047L411.126 9.78841L411.587 10.1955L412.046 10.6012L412.504 11.0057L412.96 11.4089L413.415 11.8108L413.868 12.2115L414.32 12.6108L414.771 13.0089L416.559 14.5887L417.445 15.371L417.885 15.7602L418.324 16.1482L418.762 16.535L419.198 16.9204L419.633 17.3047L420.067 17.6877L420.499 18.0694L420.929 18.4499L421.787 19.2071L422.213 19.5839L422.638 19.9594L423.484 20.7068L424.324 21.4492L424.742 21.8185L425.159 22.1866L425.574 22.5535L425.988 22.9192L426.812 23.6469L428.442 25.0876L428.847 25.4448L429.25 25.8007L429.651 26.1554L430.051 26.5089L431.638 27.911L433.203 29.2939L433.978 29.9782L434.363 30.3185L434.747 30.6577L435.13 30.9957L435.511 31.3325L435.891 31.6681L436.269 32.0026L436.647 32.3359L437.022 32.668L437.397 32.9989L437.77 33.3287L439.25 34.636L439.617 34.96L439.982 35.2827L440.346 35.6043L440.709 35.9248L441.07 36.2441L441.43 36.5622L441.789 36.8792L442.147 37.1951L442.503 37.5098L442.858 37.8233L443.211 38.1357L443.564 38.447L444.264 39.0661L444.96 39.6807L446.336 40.8962L449.026 43.2733L451.636 45.5793L454.167 47.815L454.478 48.0896L454.787 48.3631L455.403 48.9069L455.709 49.1771L456.013 49.4463L456.317 49.7144L456.619 49.9815L457.22 50.5123L457.816 51.039L458.112 51.3007L458.407 51.5613L458.701 51.8209L458.994 52.0795L459.285 52.337L459.575 52.5934L460.152 53.1031L460.439 53.3564L460.725 53.6086L461.292 54.11L461.574 54.3591L461.855 54.6072L462.134 54.8542L462.413 55.1002L462.966 55.5892L463.515 56.074L465.664 57.9723L466.71 58.8971L466.969 59.1258L467.227 59.3535L467.739 59.8059L467.993 60.0306L468.247 60.2543L468.75 60.6987L468.999 60.9194L469.248 61.1391L469.742 61.5757L469.988 61.7924L470.232 62.0082L470.475 62.2231L470.717 62.4369L471.674 63.2826L473.536 64.9275L474.441 65.727L474.664 65.9245L474.887 66.1211L475.108 66.3167L475.329 66.5114L477.053 68.0351L477.891 68.7747L478.303 69.139L478.711 69.4997L480.303 70.9059L480.691 71.2485L480.883 71.4184L481.074 71.5875L481.83 72.2548L482.569 72.908L482.751 73.0691L482.933 73.2294L483.113 73.3887L483.292 73.5472L484 74.1725L484.348 74.48L484.521 74.6325L484.692 74.7841L485.033 75.0848L485.201 75.2338L485.369 75.382L485.702 75.6759L486.031 75.9664L488.526 78.1708L488.674 78.3016L488.821 78.4316L488.967 78.5608L489.112 78.6891L489.685 79.1947L490.242 79.6875L490.38 79.8087L490.516 79.9292L490.651 80.0488L490.786 80.1677L492.82 81.9645L494.635 83.5687L495.056 83.9405L495.464 84.3008L496.241 84.9874L496.611 85.314L496.791 85.4732L496.88 85.5517L496.968 85.6296L497.142 85.7833L497.228 85.8591L497.313 85.9343L497.397 86.0087L497.481 86.0826L497.563 86.1557L497.646 86.2281L497.966 86.5114L498.122 86.649L498.275 86.7841L498.425 86.9165L498.498 86.9817L498.572 87.0463L498.644 87.1102L498.716 87.1735L498.857 87.2982L499.392 87.7715L499.883 88.2049L500 88.3083V91.1301C496.524 92.1167 490.887 95.0002 491.368 103.299L500 93.5285V99.3098C496.663 103.043 491.372 103.37 491.372 103.37L491.372 103.37L491.369 103.367L491.367 103.366L491.334 103.337L491.277 103.286L491.05 103.086L490.884 102.939L490.787 102.853L490.68 102.759L490.439 102.546L490.304 102.426L490.159 102.298L489.838 102.015L489.477 101.696L489.074 101.339L488.627 100.945L488.137 100.512L487.875 100.28L487.807 100.22L487.739 100.16L487.601 100.038L487.316 99.7863L487.019 99.5241L486.39 98.9682L486.225 98.8226L486.057 98.6743L485.886 98.5233L485.8 98.4468L485.712 98.3696L485.535 98.2132L485.355 98.054L485.264 97.9734L485.172 97.8921L484.985 97.7274L483.38 96.3087L482.946 95.9253L482.835 95.8277L482.724 95.7293L482.612 95.6301L482.499 95.5303L482.385 95.4297L482.27 95.3283L482.154 95.2262L482.038 95.1234L481.564 94.7046L479.53 92.9077L479.26 92.6692L478.987 92.4275L478.429 91.9347L478.287 91.8095L478.145 91.6835L477.857 91.4292L477.565 91.1716L477.27 90.9108L474.775 88.7064L472.037 86.2872L471.677 85.9694L471.495 85.8091L471.313 85.648L471.13 85.486L470.945 85.3232L470.574 84.9948L469.047 83.6459L468.852 83.4733L468.655 83.2998L468.458 83.1254L468.259 82.9501L467.455 82.2397L467.252 82.0598L467.047 81.8791L466.635 81.5148L465.798 80.7752L464.073 79.2514L462.28 77.6675L461.821 77.262L461.59 77.0579L461.358 76.8527L460.418 76.0226L459.461 75.1769L459.219 74.9631L458.976 74.7483L458.732 74.5325L458.486 74.3157L450.036 66.85L448.897 65.8431L448.32 65.3334L447.738 64.8195L445.363 62.7215L445.061 62.4544L444.758 62.1863L444.453 61.9171L444.147 61.6469L443.84 61.3755L443.532 61.1031L443.222 60.8296L442.911 60.5551L441.656 59.4459L441.339 59.1659L441.021 58.8848L440.381 58.3193L440.059 58.0349L439.736 57.7495L439.411 57.4629L439.086 57.1752L437.771 56.0134L437.439 55.7201L437.106 55.4258L436.771 55.1303L436.435 54.8337L436.098 54.536L435.76 54.2372L435.421 53.9373L435.08 53.6362L434.395 53.0307L434.05 52.7263L433.704 52.4207L432.308 51.187L431.955 50.8758L431.602 50.5633L430.891 49.9351L430.533 49.6193L430.174 49.3023L429.814 48.9841L429.453 48.6648L427.994 47.376L427.257 46.7247L426.886 46.3973L426.515 46.0687L425.767 45.408L425.391 45.0759L425.014 44.7426L424.635 44.4082L424.255 44.0725L423.491 43.3977L421.948 42.0339L420.382 40.651L419.592 39.9524L419.194 39.6013L418.795 39.249L417.994 38.5407L417.591 38.1848L417.187 37.8276L415.556 36.3869L415.145 36.0237L414.732 35.6592L413.903 34.9267L413.068 34.1892L412.649 33.8186L412.228 33.4468L411.806 33.0737L411.382 32.6994L410.531 31.9472L408.811 30.4277L408.377 30.0447L407.943 29.6605L407.506 29.275L407.069 28.8882L406.189 28.111L405.303 27.3287L403.515 25.749L403.065 25.3509L402.613 24.9515L401.704 24.1489L399.87 22.5284L399.408 22.1201L398.944 21.7105L398.479 21.2996L398.013 20.8874L397.545 20.4739L397.075 20.0591L396.604 19.6431L396.132 19.2257L395.658 18.807L395.183 18.3871L394.706 17.9658L394.227 17.5432L393.748 17.1194L393.266 16.6942L392.784 16.2677L392.299 15.8399L391.814 15.4108L391.327 14.9803L390.838 14.5486L390.348 14.1155L389.856 13.6811L389.363 13.2454L388.868 12.8084L388.372 12.37Z" fill="white"/>
</svg>
