<svg width="500" height="500" viewBox="0 0 500 500" fill="none" xmlns="http://www.w3.org/2000/svg">
<path d="M93.5 31C98.1667 29 107.833 28.3333 122.5 29C137.167 29.3333 147.667 30.6667 154 33L166.5 37C176.833 44 182.667 47.5 184 47.5C197.667 58.1666 205.5 72.1666 207.5 89.5C209.5 96.8333 209.833 103.5 208.5 109.5C208.5 111.5 207.833 115.833 206.5 122.5L201.5 134L195.5 142.5C193.5 142.833 192.333 143 192 143C179.667 145 170.167 145.333 163.5 144C156.833 142.333 151 138.667 146 133C145 131 144.5 129.167 144.5 127.5C144.833 125.833 145.333 124.333 146 123L148.5 115C152.833 104.333 152.5 95.3333 147.5 88C147.5 87 145.833 85.1667 142.5 82.5C139.167 79.8333 136.5 77.8333 134.5 76.5C132.833 75.1667 129.667 75 125 76C117 79.3333 110.167 89.5 104.5 106.5C97.8333 115.167 93.1667 126.5 90.5 140.5C86.5 165.5 84.5 179.667 84.5 183L84 194V198.5C83.3333 199.167 83.6667 213.667 85 242C85.3333 243.667 86 246 87 249C88 252.667 89.5 258.667 91.5 267L98 278C99.6667 279 101.833 282 104.5 287C106.167 287 107.5 288.167 108.5 290.5C110.833 292.833 111.833 294.167 111.5 294.5C113.167 294.833 115.667 295.833 119 297.5C128 302.167 135.833 301.167 142.5 294.5C144.833 292.167 147.667 289 151 285C154.667 280.667 157.333 277.333 159 275C161 272.333 164 269.833 168 267.5C179 259.167 188.5 259.5 196.5 268.5C198.167 271.167 198.333 277.667 197 288C196 298 191.333 308.5 183 319.5C182.333 321.5 180.167 324.833 176.5 329.5C172.833 333.833 169 337.333 165 340C164.333 342.333 151.667 344 127 345C125.667 345 123 344.667 119 344C115.333 345 110.333 344.5 104 342.5C98 340.5 94.6667 339.5 94 339.5L87.5 338C84.8333 338 82.1667 337.167 79.5 335.5C76.8333 333.833 72.3333 331 66 327C60 322.667 55.3333 319.167 52 316.5C42 308.5 34.8333 299.333 30.5 289C29.1667 286.667 28.3333 283.5 28 279.5C27.6667 275.167 27 272 26 270C23.3333 267.333 22 263 22 257C22.3333 251 22 243.667 21 235C21 231 21.1667 228.667 21.5 228C19.8333 226.333 19.1667 223.5 19.5 219.5C19.8333 215.167 20 209.333 20 202C21 200 21.3333 194.167 21 184.5C21 174.5 21.3333 167 22 162C20.6667 159 20.5 154.667 21.5 149L22 134C22.3333 128 23.8333 121.667 26.5 115C26.8333 112 27.5 108.5 28.5 104.5C29.5 100.167 33.8333 91.6667 41.5 79C41.5 76.3333 44 73 49 69C49 67.6667 50.3333 65.6667 53 63C55.6667 60.3333 58.6667 57 62 53C66.6667 47.3333 71.8333 43.1666 77.5 40.5C83.1667 37.8333 88.5 34.6667 93.5 31Z" fill="#7B1A28"/>
<path d="M265.94 266.827C267.607 261.827 267.44 251.161 265.44 234.827C265.44 229.494 263.94 221.661 260.94 211.327C238.274 214.994 226.274 216.827 224.94 216.827C213.274 218.494 205.107 219.327 200.44 219.327C196.107 219.327 193.274 219.161 191.94 218.827C189.274 218.161 187.94 215.327 187.94 210.327C187.94 204.994 189.274 200.327 191.94 196.327C194.607 191.994 197.107 189.327 199.44 188.327C204.44 185.327 211.774 182.161 221.44 178.827C221.44 178.161 229.607 175.494 245.94 170.827C256.274 166.161 269.44 162.827 285.44 160.827C286.774 160.494 287.774 160.327 288.44 160.327L296.94 158.827H311.44L322.94 162.327C327.274 163.661 334.107 168.494 343.44 176.827L344.44 179.827C347.107 181.827 348.44 183.161 348.44 183.827C348.44 184.494 348.607 185.494 348.94 186.827C348.94 195.161 346.607 200.161 341.94 201.827C340.607 202.161 336.94 201.994 330.94 201.327C319.607 199.994 312.44 200.327 309.44 202.327C309.44 205.661 309.94 208.494 310.94 210.827C311.94 212.827 313.94 221.661 316.94 237.327C316.94 239.661 318.274 246.827 320.94 258.827C323.94 270.494 325.774 283.661 326.44 298.327C330.107 306.327 331.94 328.494 331.94 364.827C332.274 366.827 332.44 369.661 332.44 373.327C331.44 375.327 330.94 380.327 330.94 388.327C330.274 390.994 329.94 394.327 329.94 398.327C329.274 400.661 328.774 403.661 328.44 407.327C328.107 410.661 327.774 413.327 327.44 415.327C326.44 420.994 324.94 424.827 322.94 426.827C321.274 428.494 319.94 433.327 318.94 441.327C318.94 441.994 317.607 444.327 314.94 448.327C312.607 452.327 310.44 454.994 308.44 456.327L304.44 460.827C304.44 462.827 301.107 467.161 294.44 473.827L290.94 477.827C288.94 479.161 284.607 483.494 277.94 490.827C277.607 492.161 273.607 493.994 265.94 496.327C258.607 498.661 250.607 498.661 241.94 496.327C237.274 495.661 232.274 492.661 226.94 487.327C225.607 487.661 224.774 487.661 224.44 487.327C221.774 484.661 216.44 481.661 208.44 478.327C207.774 478.994 203.774 475.994 196.44 469.327C194.774 468.994 188.607 462.661 177.94 450.327C177.607 448.661 175.94 444.827 172.94 438.827C172.94 438.494 172.107 435.827 170.44 430.827C169.107 425.494 168.107 417.994 167.44 408.327V404.827C167.44 402.827 169.44 396.827 173.44 386.827C180.107 379.161 188.44 378.994 198.44 386.327C199.44 391.661 201.274 396.494 203.94 400.827C206.607 404.827 208.44 408.661 209.44 412.327C211.774 420.661 217.774 430.327 227.44 441.327C231.107 444.994 236.107 446.994 242.44 447.327C243.774 446.994 248.94 442.994 257.94 435.327C259.274 433.994 260.607 431.661 261.94 428.327C265.274 423.661 266.94 420.827 266.94 419.827C267.274 418.827 268.107 416.494 269.44 412.827C269.44 412.494 270.774 408.827 273.44 401.827C276.44 396.494 277.107 388.494 275.44 377.827C275.107 377.494 274.94 376.327 274.94 374.327C273.94 366.327 273.274 361.494 272.94 359.827V355.327C272.607 354.994 272.44 354.494 272.44 353.827L273.44 343.827C272.107 341.827 270.607 336.494 268.94 327.827C265.607 313.494 265.274 301.827 267.94 292.827C267.94 292.494 267.607 291.161 266.94 288.827C266.274 286.161 266.107 283.661 266.44 281.327L265.94 266.827Z" fill="#D4AF37"/>
<path d="M402.553 245.062C402.219 246.395 402.053 249.062 402.053 253.062C402.053 257.062 401.719 260.562 401.053 263.562C400.386 266.562 400.386 270.229 401.053 274.562C402.386 280.562 405.219 287.895 409.553 296.562C409.553 297.562 412.053 300.229 417.053 304.562C418.386 304.895 419.719 305.229 421.053 305.562C422.719 305.895 424.053 306.395 425.053 307.062C426.053 307.395 428.386 307.229 432.053 306.562C435.719 305.562 438.053 304.729 439.053 304.062C440.386 303.062 442.886 301.062 446.553 298.062C450.219 293.395 454.219 290.229 458.553 288.562C464.886 282.562 470.886 277.395 476.553 273.062C481.886 272.062 485.386 271.729 487.053 272.062C488.719 272.395 490.553 273.729 492.553 276.062C497.219 281.395 498.553 288.229 496.553 296.562C493.886 305.895 488.886 314.729 481.553 323.062C480.219 325.395 477.719 327.562 474.053 329.562C473.386 330.229 472.386 331.729 471.053 334.062L461.553 343.562C459.553 343.562 458.219 344.562 457.553 346.562C456.886 348.562 452.553 351.062 444.553 354.062C434.553 354.062 425.719 353.062 418.053 351.062C401.386 347.395 389.553 342.895 382.553 337.562L373.053 331.562C372.386 330.229 369.219 328.395 363.553 326.062L357.053 318.062L349.553 310.062L344.553 301.062C343.553 299.729 342.886 297.229 342.553 293.562C342.219 289.562 341.719 286.229 341.053 283.562C341.386 282.562 341.553 278.895 341.553 272.562C342.219 269.562 342.553 265.895 342.553 261.562C343.219 260.562 343.219 257.062 342.553 251.062L343.053 246.562V239.562C343.053 234.229 343.719 228.562 345.053 222.562C346.386 216.562 347.719 210.229 349.053 203.562C349.053 199.229 349.553 195.395 350.553 192.062C349.553 189.062 349.719 181.729 351.053 170.062V167.062C351.053 163.729 351.219 161.062 351.553 159.062V155.562L352.553 125.062C352.553 124.062 353.386 119.729 355.053 112.062C355.053 108.062 356.553 101.562 359.553 92.5619C361.553 89.2286 362.553 86.3953 362.553 84.062C362.553 82.3953 363.053 79.0619 364.053 74.0619C365.719 72.0619 366.886 67.5619 367.553 60.5619C367.886 60.5619 368.719 56.8953 370.053 49.5619C370.053 45.5619 371.886 41.0619 375.553 36.0619C376.219 34.0619 379.219 31.7286 384.553 29.0619H385.053C386.386 28.3953 391.386 27.5619 400.053 26.5619C404.053 26.5619 409.219 27.8953 415.553 30.5619C417.219 30.5619 421.886 33.0619 429.553 38.0619C433.553 42.7286 432.386 53.3953 426.053 70.0619C426.053 73.0619 424.719 77.5619 422.053 83.5619C422.053 86.5619 421.553 90.0619 420.553 94.0619C420.553 97.0619 418.386 109.062 414.053 130.062C410.053 150.729 406.219 189.062 402.553 245.062Z" fill="#347484"/>
</svg>
